<?xml version="1.0" standalone="no"?>
<!DOCTYPE svg PUBLIC "-//W3C//DTD SVG 20010904//EN"
 "http://www.w3.org/TR/2001/REC-SVG-20010904/DTD/svg10.dtd">
<svg version="1.0" xmlns="http://www.w3.org/2000/svg"
 width="400.000000pt" height="400.000000pt" viewBox="0 0 400.000000 400.000000"
 preserveAspectRatio="xMidYMid meet">
<metadata>
Created by potrace 1.14, written by Peter Selinger 2001-2017
</metadata>
<g transform="translate(0.000000,400.000000) scale(0.100000,-0.100000)"
fill="#000000" stroke="none">
<path d="M1860 3993 c-409 -60 -740 -318 -888 -693 -63 -158 -91 -392 -67
-540 4 -19 8 -48 10 -64 6 -42 33 -133 57 -196 73 -186 202 -356 361 -476 65
-48 97 -54 127 -24 28 28 25 66 -7 93 -123 102 -176 153 -225 218 -290 375
-264 904 61 1252 322 343 846 406 1236 148 364 -240 523 -685 394 -1101 -62
-196 -164 -338 -363 -502 -47 -39 -28 -118 28 -118 47 0 190 122 281 240 123
161 205 364 220 550 11 126 11 135 4 223 -37 411 -314 776 -706 926 -47 19
-127 41 -198 56 -34 8 -287 14 -325 8z"/>
<path d="M1880 2432 c-116 -38 -215 -137 -251 -252 -34 -109 -23 -311 23 -430
12 -30 26 -61 31 -67 11 -15 11 -15 -74 -17 -41 -1 -75 -7 -90 -17 l-24 -16 0
-406 c0 -404 0 -407 22 -428 20 -21 30 -22 220 -23 l198 -1 0 -368 0 -369 24
-19 c30 -25 63 -24 87 2 17 19 19 42 19 388 l0 368 199 0 c189 1 199 2 220 22
21 21 21 26 22 404 0 210 -4 396 -8 413 -10 39 -38 51 -113 49 -33 -1 -63 0
-67 2 -4 2 1 19 12 38 20 35 35 85 45 145 3 19 8 46 10 60 8 41 8 172 1 220
-16 98 -86 203 -173 258 -95 60 -230 78 -333 44z m234 -137 c70 -33 123 -101
143 -183 12 -48 -3 -238 -22 -297 -36 -106 -89 -144 -209 -149 -91 -4 -152 8
-191 38 -36 28 -72 97 -80 154 -3 20 -8 47 -11 60 -9 45 -5 183 7 219 50 154
218 227 363 158z m257 -770 c1 -5 2 -146 3 -312 l1 -303 -375 0 -375 0 0 308
c0 232 3 308 12 312 25 10 733 5 734 -5z"/>
<path d="M1205 1375 c-317 -163 -599 -453 -750 -772 -57 -118 -61 -137 -40
-169 13 -21 23 -25 53 -22 34 3 39 7 67 63 188 379 405 614 718 779 93 49 105
58 112 87 7 30 -19 67 -52 74 -13 2 -57 -14 -108 -40z"/>
<path d="M2654 1395 c-49 -49 -33 -71 105 -148 303 -169 514 -391 674 -710 61
-121 62 -122 99 -125 30 -3 40 1 53 22 11 17 15 35 11 51 -19 76 -156 321
-232 415 -163 202 -343 354 -555 468 -100 54 -124 58 -155 27z"/>
</g>
</svg>
